<?xml version="1.0" encoding="UTF-8"?>
<svg version="1.1" xmlns="http://www.w3.org/2000/svg" width="1024" height="1024">
<path d="M0 0 C337.92 0 675.84 0 1024 0 C1024 337.92 1024 675.84 1024 1024 C686.08 1024 348.16 1024 0 1024 C0 686.08 0 348.16 0 0 Z " fill="#FDFEFE" transform="translate(0,0)"/>
<path d="M0 0 C8.9646578 0 17.52124737 0.00901252 26.375 0.875 C27.28121094 0.95363281 28.18742187 1.03226563 29.12109375 1.11328125 C31.75572993 1.35968607 34.37479684 1.66895675 37 2 C38.24958496 2.11649902 38.24958496 2.11649902 39.52441406 2.23535156 C45.22441073 3.03432944 45.22441073 3.03432944 47.31494141 5.63720703 C48.36836167 7.72018695 49.19460979 9.81004066 50 12 C50.60485875 13.29354654 51.2244479 14.58031897 51.859375 15.859375 C52.16593018 16.49383545 52.47248535 17.1282959 52.78833008 17.78198242 C68.68682414 50.3175906 96.59161866 75.06785675 130.3515625 88.203125 C133.15079418 89.0453717 135.96397307 89.57805138 138.83154297 90.13183594 C148.59163494 92.12775551 153.60902161 96.19336347 160 104 C160.73089844 104.84691406 161.46179688 105.69382812 162.21484375 106.56640625 C164.54522931 109.32662784 166.78519822 112.14720309 169 115 C169.52980469 115.67998047 170.05960938 116.35996094 170.60546875 117.06054688 C172.36769361 119.32767886 174.12299369 121.59996328 175.875 123.875 C176.43493652 124.60090332 176.99487305 125.32680664 177.57177734 126.07470703 C185 135.79929491 185 135.79929491 185 139 C185.66 139 186.32 139 187 139 C187.21914063 138.34 187.43828125 137.68 187.6640625 137 C189.45126993 132.98662192 191.83989069 129.57619313 194.375 126 C194.90665771 125.24960449 195.43831543 124.49920898 195.98608398 123.72607422 C200.72286152 117.16724461 205.90803904 111.25433051 211.578125 105.49658203 C212.95881742 104.04334636 214.24738625 102.50429149 215.53125 100.96484375 C222.84651639 92.57712318 230.25294073 90.4788111 240.72851562 87.64746094 C257.44446064 82.88276982 273.13498849 72.44002583 286 61 C286.89847656 60.24460937 287.79695313 59.48921875 288.72265625 58.7109375 C303.11369884 46.28322983 314.65770535 29.8785185 321.5625 12.1875 C324.18814414 5.60707647 324.18814414 5.60707647 327.18359375 3.3671875 C329.54684137 2.54622796 331.50898639 2.19814881 334 2 C337.465 1.505 337.465 1.505 341 1 C350.9 1 360.8 1 371 1 C371 32.68 371 64.36 371 97 C356.81 97.33 342.62 97.66 328 98 C313.57408853 99.35849391 299.55999266 101.31355521 285.44042969 104.45849609 C282.96647392 105.00743906 280.48760049 105.52889816 278.0078125 106.05078125 C247.54294464 112.66609307 219.87997978 125.48307681 193 141 C194.22396484 140.67128906 194.22396484 140.67128906 195.47265625 140.3359375 C197.34890336 139.83369943 199.2253285 139.33209196 201.10351562 138.8371582 C204.9960484 137.81044606 208.87625759 136.75389998 212.74609375 135.64453125 C239.79416733 128.04768779 267.84830354 123.59969143 295.8215332 121.27783203 C297.61340903 121.1212029 299.40467116 120.95420396 301.19197083 120.75193787 C307.6345502 120.03731981 313.99335276 119.83918863 320.47265625 119.83203125 C321.55340927 119.82870285 322.63416229 119.82537445 323.74766541 119.82194519 C326.03107278 119.81690605 328.31448746 119.81453593 330.59790039 119.81469727 C334.00094663 119.81253904 337.40365279 119.79442936 340.80664062 119.77539062 C357.46759689 119.73295099 374.60643598 119.7212872 391 123 C391 95.61 391 68.22 391 40 C402 40 402 40 409 43 C409 76.33 409 109.66 409 144 C404.10014555 144 399.91858384 143.82986034 395.140625 143.16015625 C393.85929687 142.98419922 392.57796875 142.80824219 391.2578125 142.62695312 C389.92182585 142.43915139 388.5858885 142.25099861 387.25 142.0625 C384.63052234 141.69696145 382.01073379 141.33364318 379.390625 140.97265625 C378.23594727 140.81031494 377.08126953 140.64797363 375.89160156 140.48071289 C367.05109442 139.38868287 358.33701503 138.84192142 349.4296875 138.83203125 C348.35034943 138.82870285 347.27101135 138.82537445 346.15896606 138.82194519 C343.88153504 138.81691112 341.60409673 138.81453577 339.32666016 138.81469727 C335.9324845 138.81253659 332.5386485 138.79441428 329.14453125 138.77539062 C307.76481221 138.71873128 286.6670042 140.36742203 265.5 143.3125 C264.7246994 143.41783051 263.9493988 143.52316101 263.15060425 143.63168335 C251.85225498 145.17122122 240.67894786 147.03408155 229.53515625 149.47583008 C224.9316772 150.47920424 220.74854487 151.27746089 216 151 C216 151.66 216 152.32 216 153 C200.76359769 161.21097185 187.03440417 164.77320593 169.734375 159.921875 C165.35782367 158.44635198 160.75879978 156.87010512 157.53210449 153.43920898 C155.69026064 151.70904095 154.51673753 151.42246166 152.04882812 150.97265625 C151.25429733 150.82230927 150.45976654 150.67196228 149.64115906 150.51705933 C148.77988907 150.36705475 147.91861908 150.21705017 147.03125 150.0625 C146.13183182 149.89710724 145.23241364 149.73171448 144.30574036 149.56130981 C141.37276936 149.02717818 138.43685359 148.51232252 135.5 148 C134.50092621 147.82225037 133.50185242 147.64450073 132.47250366 147.46136475 C117.66770958 144.83009533 102.9127477 142.54613999 87.92285156 141.26025391 C85.08627681 141.00768218 82.25975653 140.70321995 79.4296875 140.38671875 C46.46907986 136.93391905 13.02918903 138.19482914 -19.76586914 142.51928711 C-25.49493884 143.16972465 -31.25110898 143.55777761 -37 144 C-37 110.67 -37 77.34 -37 43 C-30 40 -30 40 -19 40 C-19 67.39 -19 94.78 -19 123 C-7.12 121.515 -7.12 121.515 5 120 C9.18715018 119.75450852 13.21943499 119.55367312 17.390625 119.56640625 C18.92456154 119.55582436 18.92456154 119.55582436 20.48948669 119.54502869 C23.7433515 119.53113978 26.99617238 119.54327733 30.25 119.5625 C31.38797028 119.56620605 32.52594055 119.56991211 33.69839478 119.57373047 C79.3744718 119.7830737 123.9388239 125.90290481 168 138 C169.01078613 138.27505371 170.02157227 138.55010742 171.06298828 138.83349609 C173.70919189 139.55373211 176.35482063 140.27601312 179 141 C163.6232611 132.36462107 148.3038577 124.51336714 131.84204102 118.10839844 C129.87747296 117.34221521 127.91995755 116.55778885 125.96850586 115.75878906 C118.19463834 112.63324423 110.35215209 110.33852475 102.22631836 108.36962891 C100.19714146 107.87733907 98.17175519 107.37137508 96.14648438 106.86328125 C64.1891102 98.92940124 33.31576111 98 0 98 C0 65.66 0 33.32 0 0 Z " fill="#2376B5" transform="translate(326,604)"/>
<path d="M0 0 C17.95041817 16.95662339 27.34595468 47.0768305 28.21484375 71.16796875 C29.11342792 109.61031779 17.04567929 145.16794209 -9.40209961 173.37890625 C-25.40851892 189.95289298 -44.96432389 201.35041869 -66.8125 208.375 C-67.55201904 208.61371826 -68.29153809 208.85243652 -69.0534668 209.09838867 C-80.25687307 212.51112618 -91.33336367 213.34956676 -102.97998047 213.31567383 C-105.23324497 213.31252343 -107.48517867 213.33603168 -109.73828125 213.36132812 C-139.14872801 213.49094348 -167.78435406 202.27105245 -190 183 C-190.8029248 182.3181665 -190.8029248 182.3181665 -191.62207031 181.62255859 C-214.61570625 161.98973822 -232.89676036 132.50562229 -236 102 C-236.02168544 99.66676744 -236.0251127 97.33319819 -236 95 C-231.80518873 94.70995788 -227.61004875 94.42539808 -223.41455078 94.14550781 C-221.99290393 94.0499403 -220.57134995 93.95297891 -219.14990234 93.85449219 C-212.20678258 93.37430465 -205.25856474 92.92875197 -198.30078125 92.73828125 C-197.39239502 92.71032471 -196.48400879 92.68236816 -195.5480957 92.65356445 C-190.65932115 93.31823544 -187.284818 96.50489564 -184 100 C-182.125 102.8125 -182.125 102.8125 -181 105 C-178.15450649 107.19764051 -178.15450649 107.19764051 -174.875 107.5 C-173.92625 107.665 -172.9775 107.83 -172 108 C-170.45413124 111.09173752 -170.70640479 113.59429552 -171 117 C-171.66 117.5775 -172.32 118.155 -173 118.75 C-175.90241466 122.0152165 -175.67164853 124.7204578 -175.5234375 128.984375 C-174.59671665 134.32339361 -171.90264613 138.50162055 -169 143 C-168.38125 144.0725 -167.7625 145.145 -167.125 146.25 C-165.25051966 148.98987173 -165.25051966 148.98987173 -163.06005859 150.25708008 C-160.49074477 151.98049941 -158.81027006 153.474148 -157 156 C-156.00221744 161.17277384 -156.24142132 166.21164927 -156.5 171.4375 C-156.54018125 172.85081052 -156.57667394 174.264231 -156.609375 175.67773438 C-156.69700765 179.12079542 -156.83473798 182.55968964 -157 186 C-156.38584229 186.20278564 -155.77168457 186.40557129 -155.13891602 186.61450195 C-154.33123779 186.88222412 -153.52355957 187.14994629 -152.69140625 187.42578125 C-151.89162354 187.69044189 -151.09184082 187.95510254 -150.26782227 188.2277832 C-147.80697287 189.06572772 -145.39726124 189.9946969 -143 191 C-143 190.34 -143 189.68 -143 189 C-141.02 188.01 -139.04 187.02 -137 186 C-137 184.35 -137 182.7 -137 181 C-134.69 181 -132.38 181 -130 181 C-128.99177684 178.99699665 -127.99581227 176.99116678 -127.03515625 174.96484375 C-126.71417969 174.29582031 -126.39320313 173.62679687 -126.0625 172.9375 C-125.74410156 172.26589844 -125.42570312 171.59429688 -125.09765625 170.90234375 C-123.03691931 167.33088862 -121.42833889 166.15297818 -117.5 164.75 C-113.77576519 163.29363325 -113.77576519 163.29363325 -112.1875 159.8125 C-111.3647018 157.17088471 -110.73679971 154.74561781 -110.1875 152.0625 C-109.2458937 147.83755348 -107.0675068 145.16762137 -104.2421875 141.95703125 C-102.63749809 139.4288885 -102.56411267 137.94223947 -103 135 C-107.58100866 130.81733992 -112.00361748 129.12594833 -117.9609375 127.578125 C-120 127 -120 127 -121 126 C-123.32817964 125.63239269 -125.6618385 125.29758419 -128 125 C-128.01417969 124.38511719 -128.02835937 123.77023437 -128.04296875 123.13671875 C-128.18840993 120.67208029 -128.41489624 118.40020665 -129 116 C-131.44135281 113.89772397 -133.46543 113.17373525 -136.5 112.1875 C-139.96384352 110.54217433 -141.64427014 107.97565877 -144 105 C-146.88443746 102.67642489 -146.88443746 102.67642489 -150.5 103 C-154 103 -154 103 -157 101 C-160.41571853 100.49968794 -160.41571853 100.49968794 -164 101 C-164.78375 101.680625 -165.5675 102.36125 -166.375 103.0625 C-169.88395537 105.65244325 -171.94366267 105.08464685 -176.109375 104.45703125 C-178 104 -178 104 -179 103 C-179.24273323 100.45130108 -179.38366867 97.90395468 -179.5234375 95.34765625 C-179.78734527 92.63255354 -179.78734527 92.63255354 -183 91 C-183 90.34 -183 89.68 -183 89 C-181.30423828 88.70609375 -181.30423828 88.70609375 -179.57421875 88.40625 C-143.48911869 81.83943257 -107.74064448 68.57762645 -75.6875 50.8125 C-68.28838286 46.72986952 -62.59076654 44.23915965 -54 46 C-53.62875 44.6696875 -53.62875 44.6696875 -53.25 43.3125 C-51.68674466 39.16987336 -50.22438083 36.19699796 -46.20703125 34.03515625 C-43.97572527 33.23671987 -42.37198545 32.87655094 -40 33 C-36.05530236 35.02524707 -33.51507597 37.58354109 -32 41.75 C-32 44 -32 44 -33 46 C-32.01 45.67 -31.02 45.34 -30 45 C-29.57329924 41.51527717 -29.35210444 38.9813155 -31.3359375 35.9765625 C-32.83609212 34.25103253 -34.36656784 32.59940232 -36 31 C-30.89421104 32.60467653 -27.44138871 35.2813665 -24.90234375 40.0703125 C-24.23914457 41.47740429 -23.60039895 42.896406 -22.9921875 44.328125 C-22.03841267 46.35077723 -22.03841267 46.35077723 -19 47 C-19 45.02 -19 43.04 -19 41 C-18.01 41 -17.02 41 -16 41 C-15.01 43.97 -15.01 43.97 -14 47 C-10.37 47.33 -6.74 47.66 -3 48 C-2.70703125 54.0546875 -2.70703125 54.0546875 -3 56 C-7.71845487 59.14563658 -12.48621948 58.24415815 -17.875 57.375 C-18.90625 57.25125 -19.9375 57.1275 -21 57 C-21.99 57.99 -21.99 57.99 -23 59 C-28.32115093 58.8762523 -32.29183638 56.69837955 -36 53 C-37.4375 49.6875 -37.4375 49.6875 -38 47 C-43.30250244 46.8200195 -47.97333214 47.38821017 -53.125 48.625 C-53.81464844 48.76550781 -54.50429688 48.90601563 -55.21484375 49.05078125 C-60.6516507 50.3502093 -62.82869912 52.41135795 -66 57 C-66.474375 57.969375 -66.94875 58.93875 -67.4375 59.9375 C-69.11847704 63.23221501 -71.10591272 65.58808859 -73.59765625 68.2890625 C-79.16448163 75.0808996 -78.0503113 85.04937696 -77.4453125 93.34570312 C-76.39905789 99.58193125 -72.59520808 103.84129701 -68 108 C-64.59558729 110.26960847 -63.88753927 110.16765738 -60 109.6875 C-59.13375 109.58824219 -58.2675 109.48898437 -57.375 109.38671875 C-54.86027069 109.04211915 -54.86027069 109.04211915 -52 108 C-47.46702092 107.62844434 -44.82057389 107.68668997 -40.5625 109.3125 C-37.13139878 112.91097201 -37.3763112 115.51220383 -37.2109375 120.33984375 C-37.16502655 123.16014103 -37.16502655 123.16014103 -35.4375 125.9375 C-33.15488117 130.80047055 -33.43186946 135.71929942 -34 141 C-35.5 144.3125 -35.5 144.3125 -37 147 C-37.33465889 150.70940775 -37.33465889 150.70940775 -37 154 C-36.67 154.33 -36.34 154.66 -36 155 C-35.84417697 156.34015221 -35.74955858 157.68758903 -35.68359375 159.03515625 C-35.62075195 160.24848633 -35.62075195 160.24848633 -35.55664062 161.48632812 C-35.51732422 162.33646484 -35.47800781 163.18660156 -35.4375 164.0625 C-35.39431641 164.91650391 -35.35113281 165.77050781 -35.30664062 166.65039062 C-35.20023298 168.76672037 -35.09958269 170.88333813 -35 173 C-19.47163969 160.98366137 -8.12893806 146.86108334 0 129 C0.5259375 127.88753906 1.051875 126.77507812 1.59375 125.62890625 C5.62274833 116.77103491 10.16642422 105.95247676 9 96 C7.84749415 93.41472633 6.65261729 90.9825613 5.3125 88.5 C-4 70.61520315 -4 70.61520315 -4 65 C-1 66 -1 66 0.46484375 68.3359375 C9 85.94960212 9 85.94960212 9 91 C9.66 91 10.32 91 11 91 C12.15918692 64.14609755 7.65328628 39.54777662 -7.15527344 16.81835938 C-9.30640751 13.47464706 -10 12.10984115 -10 8 C-7.8125 5.859375 -7.8125 5.859375 -5 3.75 C-4.071875 3.04359375 -3.14375 2.3371875 -2.1875 1.609375 C-1.465625 1.07828125 -0.74375 0.5471875 0 0 Z " fill="#2177B6" transform="translate(617,473)"/>
<path d="M0 0 C1.49273438 -0.0309375 1.49273438 -0.0309375 3.015625 -0.0625 C17.51940424 -0.13823775 31.20126312 5.80762297 41.74609375 15.828125 C46.17552158 20.86710712 49.59906446 26.41228286 52.875 32.25 C53.35453125 33.09949219 53.8340625 33.94898438 54.328125 34.82421875 C59.2446623 45.57481617 58.78635886 62.50492064 54.96484375 73.58203125 C54.60519531 74.46246094 54.24554687 75.34289062 53.875 76.25 C53.42253906 77.42949219 52.97007812 78.60898437 52.50390625 79.82421875 C43.74607049 101.72290187 29.06080082 121.39779602 13.875 139.25 C12.82508305 140.50874956 11.77563602 141.76789117 10.7265625 143.02734375 C9.63089977 144.33131046 8.53455091 145.63470097 7.4375 146.9375 C6.91663818 147.56301758 6.39577637 148.18853516 5.85913086 148.83300781 C4.57488144 150.34369013 3.22977551 151.80222898 1.875 153.25 C-0.125 153.25 -0.125 153.25 -1.61865234 151.77685547 C-2.18535645 151.10541504 -2.75206055 150.43397461 -3.3359375 149.7421875 C-3.95952148 149.00838867 -4.58310547 148.27458984 -5.22558594 147.51855469 C-5.85239258 146.76993164 -6.47919922 146.02130859 -7.125 145.25 C-7.95306152 144.27788574 -7.95306152 144.27788574 -8.79785156 143.28613281 C-32.3349303 115.56784492 -57.91528581 83.46246999 -55.125 45.25 C-52.49343017 30.42298371 -44.00114938 18.09722509 -31.8125 9.5 C-21.44846741 2.42616015 -12.33577063 0.0624596 0 0 Z " fill="#2175B5" transform="translate(511.125,258.75)"/>
<path d="M0 0 C0.33 0.66 0.66 1.32 1 2 C-0.28359282 4.77907059 -1.63031467 7.39814519 -3.125 10.0625 C-3.57222412 10.86236328 -4.01944824 11.66222656 -4.48022461 12.48632812 C-11.7623527 25.14830397 -21.05195401 36.35190633 -31 47 C-32.50195476 48.68576041 -34.00192478 50.37329105 -35.5 52.0625 C-42.23845083 59.53925066 -49.337569 66.47962977 -57 73 C-57.89847656 73.78761719 -58.79695313 74.57523437 -59.72265625 75.38671875 C-109.36231594 118.58981756 -171.79097638 148.93460992 -236.28320312 161.46728516 C-238.06006204 161.81569513 -239.83495259 162.17433935 -241.60742188 162.54443359 C-273.50867599 169.18744417 -312.33298401 170.66533868 -340.7890625 152.5234375 C-349.37878824 146.60472188 -356.99359204 138.18216011 -359.55078125 127.75390625 C-362.5326314 109.47386836 -356.39556556 93.7884757 -346 79 C-341.15893172 72.49936819 -335.85805338 66.59042658 -330 61 C-329.21625 60.21625 -328.4325 59.4325 -327.625 58.625 C-326.75875 57.75875 -325.8925 56.8925 -325 56 C-324.40058594 55.36578125 -323.80117188 54.7315625 -323.18359375 54.078125 C-316.66139366 47.30368513 -309.5142016 41.61567674 -302 36 C-301.37125977 35.52691406 -300.74251953 35.05382812 -300.09472656 34.56640625 C-288.46464884 25.88355611 -276.11310451 18.59407347 -263.50097656 11.43530273 C-261.739293 10.42427797 -260.00868681 9.35812381 -258.30371094 8.25415039 C-257.16337402 7.63334595 -257.16337402 7.63334595 -256 7 C-255.01 7.495 -255.01 7.495 -254 8 C-254.95519531 8.68964844 -255.91039062 9.37929688 -256.89453125 10.08984375 C-267.61338492 17.86487512 -277.89189167 25.95931075 -287.67578125 34.8984375 C-289.70565015 36.73384837 -291.7770936 38.49381444 -293.875 40.25 C-308.76921368 53.34611947 -327.21446408 74.03304478 -329.25 94.515625 C-329.62492581 102.9045899 -327.57472142 109.94622806 -322.5 116.6875 C-312.45556894 127.33459693 -296.77455385 131.38736883 -282.60791016 132.19287109 C-209.70750023 133.83859112 -139.40669085 106.90117285 -79.1875 66.9375 C-78.6207254 66.56194977 -78.05395081 66.18639954 -77.47000122 65.79946899 C-55.35080549 51.10407828 -33.73046042 34.31141493 -15.25 15.1484375 C-13 13 -13 13 -11 13 C-11 12.34 -11 11.68 -11 11 C-9.38161281 9.28641357 -7.70328319 7.6292274 -6 6 C-4.89324444 4.89842831 -3.78904707 3.79428007 -2.6875 2.6875 C-1.800625 1.800625 -0.91375 0.91375 0 0 Z " fill="#2277B7" transform="translate(668,390)"/>
<path d="M0 0 C0 0.66 0 1.32 0 2 C-1.44262695 3.15405273 -1.44262695 3.15405273 -3.48828125 4.43359375 C-4.24778076 4.9121582 -5.00728027 5.39072266 -5.78979492 5.88378906 C-6.6222876 6.39651367 -7.45478027 6.90923828 -8.3125 7.4375 C-9.16755127 7.96956055 -10.02260254 8.50162109 -10.90356445 9.04980469 C-24.91794531 17.71785898 -39.09402071 25.95829286 -54 33 C-54.7532959 33.35803711 -55.5065918 33.71607422 -56.28271484 34.08496094 C-66.03181642 38.68709568 -75.91038683 42.88701792 -86 46.6875 C-86.9379541 47.05101562 -87.8759082 47.41453125 -88.84228516 47.7890625 C-89.71933105 48.11003906 -90.59637695 48.43101562 -91.5 48.76171875 C-92.2734375 49.05006592 -93.046875 49.33841309 -93.84375 49.63549805 C-96.61725636 50.10434372 -97.68210262 49.53795136 -100 48 C-103.66983961 44.15540613 -105.63082359 41.22776448 -107 36 C-110.465 36.495 -110.465 36.495 -114 37 C-114.37125 36.195625 -114.7425 35.39125 -115.125 34.5625 C-116.8109337 31.68827104 -116.8109337 31.68827104 -120.1875 31.1875 C-121.115625 31.125625 -122.04375 31.06375 -123 31 C-124.17938134 33.77997031 -125.1154872 36.44545063 -125.875 39.375 C-127.12491242 43.40249558 -128.80587448 46.41626165 -131 50 C-131.99 50 -132.98 50 -134 50 C-133.979375 49.13375 -133.95875 48.2675 -133.9375 47.375 C-135.55453405 42.2385389 -139.47748525 40.57646295 -144 38 C-143.28412229 33.15155553 -141.65143071 31.28628764 -138 28 C-137.67 27.67 -137.34 27.34 -137 27 C-132.83535074 26.83982118 -129.05273808 27.01751804 -125 28 C-125.103125 26.948125 -125.20625 25.89625 -125.3125 24.8125 C-125 21 -125 21 -122.8125 18 C-120 16 -120 16 -117.1875 16.1875 C-116.465625 16.455625 -115.74375 16.72375 -115 17 C-115 18.65 -115 20.3 -115 22 C-115.9590625 22.433125 -115.9590625 22.433125 -116.9375 22.875 C-119.15206079 23.82823451 -119.15206079 23.82823451 -120 26 C-115.69677317 27.46939453 -111.37702633 28.77443263 -107 30 C-106.9175 29.05125 -106.835 28.1025 -106.75 27.125 C-106 24 -106 24 -104 22.75 C-103.34 22.5025 -102.68 22.255 -102 22 C-101.505 21.01 -101.505 21.01 -101 20 C-101.78375 19.79375 -102.5675 19.5875 -103.375 19.375 C-104.24125 18.92125 -105.1075 18.4675 -106 18 C-106.2475 17.05125 -106.495 16.1025 -106.75 15.125 C-108.24630679 11.38423303 -109.05707552 11.18110414 -112.625 9.625 C-114.0753295 9.06225385 -115.53156466 8.51365022 -117 8 C-115.64062915 5.1394109 -114.35479531 3.14072301 -112 1 C-117.06020769 1.55615286 -121.14633064 3.25978793 -125.625 5.5625 C-126.3272168 5.92110107 -127.02943359 6.27970215 -127.75292969 6.64916992 C-139.27448724 12.64462767 -148.70466306 20.0489348 -158 29 C-158.71929687 29.64453125 -159.43859375 30.2890625 -160.1796875 30.953125 C-171.10258865 41.04255176 -177.68551149 54.78634812 -184 68 C-189.28 68 -194.56 68 -200 68 C-198.87294692 60.11062842 -198.87294692 60.11062842 -197.43359375 57.01953125 C-197.11737061 56.33665039 -196.80114746 55.65376953 -196.4753418 54.95019531 C-196.132854 54.24475586 -195.79036621 53.53931641 -195.4375 52.8125 C-195.07889893 52.06709961 -194.72029785 51.32169922 -194.35083008 50.55371094 C-179.99006737 21.37369628 -153.06596945 -2.88833416 -122.4140625 -13.87890625 C-118.43249096 -15.18635594 -114.44734357 -16.4693876 -110.4375 -17.6875 C-109.77758057 -17.89020508 -109.11766113 -18.09291016 -108.43774414 -18.30175781 C-72.19384554 -28.88043744 -31.12387716 -20.74925144 0 0 Z " fill="#2377B6" transform="translate(587,443)"/>
<path d="M0 0 C2.10358381 1.54262813 2.84054159 2.68108317 4 5 C4.54457424 11.53489087 3.28243882 15.54794109 0.1875 21.25 C-0.16892578 21.94351562 -0.52535156 22.63703125 -0.89257812 23.3515625 C-2.38800456 26.21619589 -3.72308848 28.69040949 -5.88671875 31.109375 C-6.25410156 31.73328125 -6.62148438 32.3571875 -7 33 C-5.69513864 37.98207123 -3.40322838 42.42822472 -1.0859375 46.99609375 C-0.31711332 48.53941727 0.45109729 50.08304658 1.21875 51.62695312 C2.42178503 54.03720038 3.62884793 56.44509205 4.84667969 58.84790039 C6.02764747 61.18286559 7.19079168 63.52603676 8.3515625 65.87109375 C8.71714264 66.5817247 9.08272278 67.29235565 9.4593811 68.02452087 C11.66228668 72.51634202 12.51275708 75.88993609 12 81 C10.5 84.4375 10.5 84.4375 9 87 C5.06345641 86.46399741 3.5462436 84.76865024 1 81.8125 C0.22011719 80.91789062 -0.55976562 80.02328125 -1.36328125 79.1015625 C-3.26435964 76.87381583 -5.15318203 74.63576438 -7.04296875 72.3984375 C-7.56439453 71.78379639 -8.08582031 71.16915527 -8.62304688 70.53588867 C-9.64164832 69.33241933 -10.65496588 68.12445128 -11.66210938 66.91137695 C-14.8296834 63.1539012 -18.14107587 60.04712083 -22 57 C-24.08365804 59.80454447 -26.10825964 62.64705022 -28.125 65.5 C-28.71410156 66.29148437 -29.30320312 67.08296875 -29.91015625 67.8984375 C-33.0406654 72.19937718 -33.0406654 72.19937718 -33.95605469 77.2734375 C-33.41057491 79.6918865 -33.41057491 79.6918865 -32 83 C-30.81176203 86.56471391 -30.73725148 89.2558336 -31 93 C-32.375 95.4375 -32.375 95.4375 -34 97 C-34.66 97 -35.32 97 -36 97 C-37.60178593 95.21895282 -39.13381926 93.37462722 -40.625 91.5 C-41.44226563 90.4790625 -42.25953125 89.458125 -43.1015625 88.40625 C-43.72804688 87.6121875 -44.35453125 86.818125 -45 86 C-47.97 86.495 -47.97 86.495 -51 87 C-51.00902344 86.39671875 -51.01804687 85.7934375 -51.02734375 85.171875 C-51.88827981 82.59815132 -51.88827981 82.59815132 -55.37890625 81.515625 C-56.7682261 81.07689242 -58.16316085 80.65564253 -59.5625 80.25 C-60.62887695 79.91935547 -60.62887695 79.91935547 -61.71679688 79.58203125 C-63.4733219 79.03974836 -65.23613485 78.51790986 -67 78 C-66.63928984 75.3307448 -66.33160272 73.44716124 -64.7109375 71.26171875 C-60.48574424 68.14587989 -54.11014388 67.6703133 -49 68 C-48.75507812 67.17242187 -48.51015625 66.34484375 -48.2578125 65.4921875 C-46.80806511 61.46711244 -44.9276949 57.86772286 -42.875 54.125 C-42.50246094 53.43664062 -42.12992188 52.74828125 -41.74609375 52.0390625 C-40.83500474 50.35705202 -39.91809685 48.67819564 -39 47 C-52.62163661 43.15669179 -66.29624696 39.53863963 -80 36 C-78.62028204 31.97582263 -76.98575622 29.05175187 -74 26 C-70.98583984 25.2487793 -70.98583984 25.2487793 -67.4609375 25.07421875 C-65.51779663 24.96279541 -65.51779663 24.96279541 -63.53540039 24.84912109 C-62.14863331 24.79440324 -60.76183211 24.74054414 -59.375 24.6875 C-57.96923953 24.6169767 -56.56355762 24.54486977 -55.15795898 24.47119141 C-45.10844185 23.97143494 -35.05983885 23.75160892 -25 24 C-24.73832031 23.2884375 -24.47664062 22.576875 -24.20703125 21.84375 C-21.20977098 14.78224361 -16.81830841 8.03205052 -11 3 C-10.38125 2.401875 -9.7625 1.80375 -9.125 1.1875 C-5.97402974 -0.57333632 -3.537102 -0.38586567 0 0 Z " fill="#2576B4" transform="translate(722,299)"/>
<path d="M0 0 C1.77734375 1.125 1.77734375 1.125 3.375 2.3125 C4.426875 3.034375 5.47875 3.75625 6.5625 4.5 C12.46644792 10.40394792 15.45747679 17.13245156 15.6875 25.4375 C15.60815552 32.86612648 13.2413922 38.48624895 9.1875 44.625 C5.61695509 48.03685402 1.77917463 50.14069679 -2.625 52.3125 C-3.615 52.8075 -3.615 52.8075 -4.625 53.3125 C-21.57075218 54.49521268 -21.57075218 54.49521268 -28.625 49.3125 C-29.9553125 48.44625 -29.9553125 48.44625 -31.3125 47.5625 C-37.39992973 41.6395954 -40.6320711 34.52486475 -41 26.0625 C-40.85265499 18.33741148 -38.23654984 10.77238633 -32.625 5.3125 C-23.47396478 -1.4759043 -11.05462612 -5.34414674 0 0 Z " fill="#FAFCFC" transform="translate(524.625,287.6875)"/>
<path d="M0 0 C1.07185547 -0.01224609 2.14371094 -0.02449219 3.24804688 -0.03710938 C9.63641721 -0.04883116 15.25952656 0.54738743 21.4375 2.1875 C21.17502049 9.20882686 20.84991846 16.41277749 16.4375 22.1875 C13.59261525 24.04262447 10.6446646 25.11096922 7.4375 26.1875 C0.04839403 29.43870663 -5.47318097 33.55506476 -8.5625 41.1875 C-10.75 41.5 -10.75 41.5 -13.5625 41.1875 C-16.3125 38.75 -16.3125 38.75 -18.5625 36.1875 C-18.8925 35.8575 -19.2225 35.5275 -19.5625 35.1875 C-19.73046875 33.2265625 -19.73046875 33.2265625 -19.75 30.8125 C-19.76417969 30.02101563 -19.77835937 29.22953125 -19.79296875 28.4140625 C-19.5625 26.1875 -19.5625 26.1875 -17.5625 23.1875 C-17.46228478 20.73188546 -17.46228478 20.73188546 -17.8125 18.125 C-17.90015625 17.24714844 -17.9878125 16.36929687 -18.078125 15.46484375 C-18.3861796 13.00080068 -18.3861796 13.00080068 -20.5625 11.1875 C-22.76500992 10.72743654 -22.76500992 10.72743654 -25.1875 10.5625 C-26.00476563 10.48773438 -26.82203125 10.41296875 -27.6640625 10.3359375 C-28.29054688 10.28695313 -28.91703125 10.23796875 -29.5625 10.1875 C-30.1875 7.8125 -30.1875 7.8125 -30.5625 5.1875 C-23.61353387 -1.76146613 -9.05962142 0.00546748 0 0 Z " fill="#F9FCFC" transform="translate(512.5625,436.8125)"/>
<path d="M0 0 C5.10578896 1.60467653 8.55861129 4.2813665 11.09765625 9.0703125 C11.76085543 10.47740429 12.39960105 11.896406 13.0078125 13.328125 C13.96158733 15.35077723 13.96158733 15.35077723 17 16 C17 14.02 17 12.04 17 10 C17.99 10 18.98 10 20 10 C20.66 11.98 21.32 13.96 22 16 C25.63 16.33 29.26 16.66 33 17 C33.29296875 23.0546875 33.29296875 23.0546875 33 25 C28.28154513 28.14563658 23.51378052 27.24415815 18.125 26.375 C16.578125 26.189375 16.578125 26.189375 15 26 C14.34 26.66 13.68 27.32 13 28 C7.67884907 27.8762523 3.70816362 25.69837955 0 22 C-1.4375 18.6875 -1.4375 18.6875 -2 16 C-5.76053825 15.84650864 -8.708061 15.90635919 -12.3125 17.0625 C-17.09747351 18.27901869 -21.16666246 17.71965187 -26 17 C-26 16.67 -26 16.34 -26 16 C-23.36 15.67 -20.72 15.34 -18 15 C-17.62875 13.6696875 -17.62875 13.6696875 -17.25 12.3125 C-15.68674466 8.16987336 -14.22438083 5.19699796 -10.20703125 3.03515625 C-7.97572527 2.23671987 -6.37198545 1.87655094 -4 2 C-0.05530236 4.02524707 2.48492403 6.58354109 4 10.75 C4 13 4 13 3 15 C3.99 14.67 4.98 14.34 6 14 C6.42670076 10.51527717 6.64789556 7.9813155 4.6640625 4.9765625 C3.16390788 3.25103253 1.63343216 1.59940232 0 0 Z " fill="#2A7CBB" transform="translate(581,504)"/>
<path d="M0 0 C3 1 3 1 4.46484375 3.3359375 C13 20.94960212 13 20.94960212 13 26 C13.66 26.33 14.32 26.66 15 27 C13.68 27.33 12.36 27.66 11 28 C0 4.90378007 0 4.90378007 0 0 Z " fill="#2D7FBF" transform="translate(613,538)"/>
<path d="M0 0 C3.3 0.99 6.6 1.98 10 3 C10.33 2.34 10.66 1.68 11 1 C10.6875 4.375 10.6875 4.375 10 8 C7 10 7 10 3 10 C1.375 7.625 1.375 7.625 0 5 C-0.66 4.34 -1.32 3.68 -2 3 C-1.34 2.01 -0.68 1.02 0 0 Z " fill="#3280BD" transform="translate(470,470)"/>
<path d="M0 0 C1.79093191 -0.08086147 3.58289628 -0.13912702 5.375 -0.1875 C6.87160156 -0.23970703 6.87160156 -0.23970703 8.3984375 -0.29296875 C9.25695312 -0.19628906 10.11546875 -0.09960938 11 0 C11.66 0.99 12.32 1.98 13 3 C9.5217919 5.38505698 7.24627291 6.55872012 3 6 C2.01 5.34 1.02 4.68 0 4 C0 2.68 0 1.36 0 0 Z " fill="#EBF3F7" transform="translate(531,465)"/>
<path d="M0 0 C-1.58667578 3.90285767 -4.13350481 6.33520982 -7.125 9.25 C-8.03507812 10.14203125 -8.94515625 11.0340625 -9.8828125 11.953125 C-10.58148438 12.62859375 -11.28015625 13.3040625 -12 14 C-12.99 13.67 -13.98 13.34 -15 13 C-3.80555556 0 -3.80555556 0 0 0 Z " fill="#287EB9" transform="translate(480,269)"/>
<path d="M0 0 C0.66 0.33 1.32 0.66 2 1 C-0.4312688 2.84214217 -2.86931698 4.67378239 -5.3125 6.5 C-6.00279297 7.02464844 -6.69308594 7.54929687 -7.40429688 8.08984375 C-8.07138672 8.58613281 -8.73847656 9.08242188 -9.42578125 9.59375 C-10.34484253 10.28500977 -10.34484253 10.28500977 -11.2824707 10.99023438 C-13 12 -13 12 -16 12 C-16 11.01 -16 10.02 -16 9 C-13.38029207 7.46935061 -10.75498357 5.95030252 -8.125 4.4375 C-7.37863281 3.99986328 -6.63226563 3.56222656 -5.86328125 3.11132812 C-5.14785156 2.70205078 -4.43242187 2.29277344 -3.6953125 1.87109375 C-3.03547363 1.48880615 -2.37563477 1.10651855 -1.69580078 0.71264648 C-1.13618652 0.47747314 -0.57657227 0.2422998 0 0 Z " fill="#4384BC" transform="translate(412,397)"/>
<path d="M0 0 C0.33 0.66 0.66 1.32 1 2 C0.00390625 4.1640625 0.00390625 4.1640625 -1.4375 6.625 C-1.91058594 7.44226563 -2.38367188 8.25953125 -2.87109375 9.1015625 C-3.24363281 9.72804688 -3.61617187 10.35453125 -4 11 C-4.66 11 -5.32 11 -6 11 C-6.71484375 9.234375 -6.71484375 9.234375 -7 7 C-5.56640625 5.078125 -5.56640625 5.078125 -3.5625 3.25 C-2.90378906 2.63640625 -2.24507812 2.0228125 -1.56640625 1.390625 C-1.04949219 0.93171875 -0.53257812 0.4728125 0 0 Z " fill="#4F93C4" transform="translate(668,390)"/>
<path d="M0 0 C0.66 0.99 1.32 1.98 2 3 C-0.97 5.475 -0.97 5.475 -4 8 C-4.66 7.34 -5.32 6.68 -6 6 C-4.95125002 3.37812506 -4.35068687 2.20628639 -1.875 0.75 C-1.25625 0.5025 -0.6375 0.255 0 0 Z " fill="#397EBC" transform="translate(395,407)"/>
<path d="M0 0 C1.67542976 0.28604898 3.34385343 0.61781233 5 1 C5 1.99 5 2.98 5 4 C2.69 4.66 0.38 5.32 -2 6 C-1.125 1.125 -1.125 1.125 0 0 Z " fill="#266FAD" transform="translate(467,459)"/>
<path d="M0 0 C2.475 0.495 2.475 0.495 5 1 C5.33 4.96 5.66 8.92 6 13 C5.01 13.495 5.01 13.495 4 14 C3.96261719 13.30132813 3.92523438 12.60265625 3.88671875 11.8828125 C3.82097656 10.97273437 3.75523437 10.06265625 3.6875 9.125 C3.62949219 8.22007812 3.57148438 7.31515625 3.51171875 6.3828125 C3.2117961 3.63778399 3.2117961 3.63778399 0 2 C0 1.34 0 0.68 0 0 Z " fill="#3E8BC2" transform="translate(434,562)"/>
<path d="M0 0 C4.41889613 1.35021826 6.34345343 3.26115668 9 7 C8.34 8.32 7.68 9.64 7 11 C6.773125 10.29875 6.54625 9.5975 6.3125 8.875 C4.68343133 5.30656387 2.59359269 2.93485489 0 0 Z " fill="#3D8CC3" transform="translate(581,504)"/>
<path d="M0 0 C0.99 0.33 1.98 0.66 3 1 C2.319375 1.61875 2.319375 1.61875 1.625 2.25 C-0.05950374 4.06408095 -0.99265971 5.75285627 -2 8 C-2.66 8 -3.32 8 -4 8 C-3.50168276 4.31245243 -2.89932357 2.39509338 0 0 Z " fill="#297FB9" transform="translate(659,369)"/>
<path d="M0 0 C0.99 0.33 1.98 0.66 3 1 C4.1875 3.5625 4.1875 3.5625 5 6 C4.01 6.33 3.02 6.66 2 7 C1.34 4.69 0.68 2.38 0 0 Z " fill="#3E88C4" transform="translate(613,538)"/>
<path d="M0 0 C0 3 0 3 -2.5 5.6875 C-3.325 6.450625 -4.15 7.21375 -5 8 C-5.99 7.67 -6.98 7.34 -8 7 C-6.68 6.34 -5.36 5.68 -4 5 C-4 4.34 -4 3.68 -4 3 C-2 1.375 -2 1.375 0 0 Z " fill="#3384C0" transform="translate(661,398)"/>
<path d="M0 0 C0.66 0.33 1.32 0.66 2 1 C0.70700306 3.88437779 -0.65941363 5.87219421 -3 8 C-3.66 7.67 -4.32 7.34 -5 7 C-3.35 4.69 -1.7 2.38 0 0 Z " fill="#EDF2F2" transform="translate(700,355)"/>
<path d="M0 0 C2 1 2 1 3 3 C0.03 3.66 -2.94 4.32 -6 5 C-2.25 1.125 -2.25 1.125 0 0 Z " fill="#DEEBF1" transform="translate(524,741)"/>
<path d="M0 0 C0.66 0.33 1.32 0.66 2 1 C-2.455 3.97 -2.455 3.97 -7 7 C-7.66 6.34 -8.32 5.68 -9 5 C-7.54735962 4.1361871 -6.0876837 3.28419546 -4.625 2.4375 C-3.40683594 1.72400391 -3.40683594 1.72400391 -2.1640625 0.99609375 C-1.44992187 0.66738281 -0.73578125 0.33867187 0 0 Z " fill="#669DC7" transform="translate(412,397)"/>
</svg>
